# xmcd
#
# Track frame offsets:
#	150
#	18790
#	41840
#	63850
#	76532
#	87360
#	108597
#	124875
#	143615
#	163710
#	182012
#	199050
#	210082
#	227465
#
# Disc length: 3334 seconds
#
# Revision: 0
# Processed by: cddbd v1.5.2PL0 Copyright (c) Steve Scherf et al.
# Submitted via: audiograbber 1.83.01
#
DISCID=a70d040e
DTITLE=Ella Fitzgerald and Joe Pass - Ella Fitzgerald and Pass...Again
DYEAR=1976
DGENRE=Vocal
TTITLE0=I Ain't Got Nothin' But the Blues
TTITLE1='Tis Autumn
TTITLE2=My Old Flame
TTITLE3=That Old Feeling
TTITLE4=Rain
TTITLE5=I Didn't Know About You
TTITLE6=You Took Advantage of Me
TTITLE7=I've Got the World On a String
TTITLE8=All Too Soon
TTITLE9=The One I Love (Belongs To Somebody Else)
TTITLE10=Solitude
TTITLE11=Nature Boy
TTITLE12=Tennessee Waltz
TTITLE13=One Note Samba
EXTD=
EXTT0=
EXTT1=
EXTT2=
EXTT3=
EXTT4=
EXTT5=
EXTT6=
EXTT7=
EXTT8=
EXTT9=
EXTT10=
EXTT11=
EXTT12=
EXTT13=
PLAYORDER=
